<svg xmlns="http://www.w3.org/2000/svg" xmlns:cc="http://web.resource.org/cc/" xmlns:ns1="http://sozi.baierouge.fr" xmlns:xlink="http://www.w3.org/1999/xlink" id="svg1" x="0" y="0" _SVGFile__filename="oldscale/actions/14_rotate.svg" version="1.0" viewBox="0 0 60 60"><path id="path1725" d="m25.063 4.6882l-15.618 15.475 15.618 15.438v-9.622c0.379-0.05 0.715-0.216 1.113-0.216 7 0 12.674 5.711 12.674 12.71 0 3.314-1.329 6.287-3.411 8.545l8.294 8.294c4.201-4.38 6.822-10.291 6.822-16.839 0-13.464-10.915-24.414-24.379-24.414-0.379 0-0.739 0.086-1.113 0.108v-9.4788z" style="stroke-linejoin:round;color:#000;stroke:#fff;stroke-linecap:round;stroke-width:8.125;fill:none"/><path id="path1091" d="m25.063 4.6882l-15.618 15.475 15.618 15.438v-9.622c0.379-0.05 0.715-0.216 1.113-0.216 7 0 12.674 5.711 12.674 12.71 0 3.314-1.329 6.287-3.411 8.545l8.294 8.294c4.201-4.38 6.822-10.291 6.822-16.839 0-13.464-10.915-24.414-24.379-24.414-0.379 0-0.739 0.086-1.113 0.108v-9.4788z" style="stroke-linejoin:round;fill-rule:evenodd;color:#000;stroke:#000;stroke-linecap:round;stroke-width:3.125;fill:#000"/><metadata/></svg>