<svg xmlns="http://www.w3.org/2000/svg" xmlns:xlink="http://www.w3.org/1999/xlink" id="图层_1" x="0" y="0" version="1.1" viewBox="0 0 200 200" xml:space="preserve" style="enable-background:new 0 0 200 200"><style type="text/css">.st0{fill:gray}</style><path d="M103.8,27.5l38.8,53.8H65L103.8,27.5 M103.7,6.2L41.2,93.8h125C166.2,93.8,103.7,6.2,103.7,6.2z M50,118.8	c17.5,0,31.2,13.8,31.2,31.2S67.5,181.2,50,181.2S18.8,167.5,18.8,150S32.5,118.8,50,118.8 M50,106.2c-23.8,0-43.8,20-43.8,43.8	s20,43.8,43.8,43.8s43.8-20,43.8-43.8S73.8,106.2,50,106.2z M181.2,118.8v62.5h-62.5v-62.5H181.2 M193.8,106.2h-87.5v87.5h87.5	V106.2z" class="st0"/></svg>